<?xml version="1.0" encoding="UTF-8" standalone="no"?>
<!DOCTYPE svg PUBLIC "-//W3C//DTD SVG 1.1//EN" "http://www.w3.org/Graphics/SVG/1.1/DTD/svg11.dtd">
<svg width="100%" height="100%" viewBox="0 0 529 264" version="1.1" xmlns="http://www.w3.org/2000/svg" xmlns:xlink="http://www.w3.org/1999/xlink" xml:space="preserve" xmlns:serif="http://www.serif.com/" style="fill-rule:evenodd;clip-rule:evenodd;stroke-linejoin:round;stroke-miterlimit:2;">
    <g id="Artboard1" transform="matrix(0.889076,0,0,0.443697,-600.443293,-344.752941)">
        <rect x="675.357" y="777" width="595" height="595" style="fill:none;"/>
        <g transform="matrix(2.413079,0,0,4.835298,-1472.254131,-2500.006286)">
            <path d="M933.65,758.6C931.934,761.261 929.808,763.514 927.284,765.348C913.466,775.333 884.902,771.842 893.544,743.839C896.962,732.755 905.776,726.212 913.442,722.477C914.052,722.16 914.125,721.305 913.564,720.89C907.265,716.349 904.653,710.075 906.069,702.75C908.412,690.519 920.864,679.093 933.852,680.143C950.99,681.535 953.237,700.529 942.275,709.171C939.443,711.393 936.293,712.37 933.364,711.955C931.85,711.735 929.482,708.219 929.653,706.828C929.701,706.242 930.165,705.875 930.776,705.924C943.642,706.95 947.768,687.882 933.315,686.71C923.476,685.905 914.223,695.182 912.538,703.996C910.073,716.862 927.162,719.425 927.87,719.743C928.114,719.865 928.359,720.158 928.31,720.622C928.212,721.769 925.844,725.016 924.501,725.333C924.306,725.382 904.653,730.216 899.843,745.768C896.84,755.509 898.696,762.956 908.901,763.737C913.271,764.079 927.846,763.81 931.508,746.378C932.436,741.959 932.192,738.639 930.849,736.784C930.043,735.661 928.505,734.684 927.333,734.049C923.354,731.901 930.239,728.727 932.9,729.972C933.901,730.436 934.755,730.998 936.073,732.755C938.661,736.222 939.296,741.276 937.953,747.746C937.528,749.756 936.972,751.643 936.285,753.404C936.902,753.121 939.065,751.724 943.817,744.987C944.11,744.547 944.207,743.986 944.085,743.449L938.348,722.135C938.153,721.452 938.446,720.719 939.105,720.353C939.373,720.182 939.715,720.133 940.032,720.158L940.301,720.182C942.327,720.353 944.012,721.793 944.549,723.747L947.845,736.076C948.04,736.832 949.041,736.979 949.456,736.32C951.214,733.439 952.728,730.851 953.729,729.118C954.29,728.141 954.681,727.457 954.949,727.018C959.173,720.133 964.276,719.767 966.961,720.158C967.645,720.255 968.231,720.792 968.353,721.525C968.402,721.769 968.377,722.038 968.304,722.282L967.889,723.747C967.596,724.821 966.595,725.578 965.496,725.578C964.031,725.578 961.859,726.334 959.686,729.899C959.442,730.29 959.051,730.973 958.538,731.852L958.514,731.901C956.903,734.66 953.997,739.665 950.823,744.498C950.506,745.011 950.408,745.646 950.555,746.232C951.409,749.332 954.241,754.191 958.319,754.191L958.612,754.191C960.955,754.166 964.178,754.142 966.204,746.134C966.248,745.981 966.35,745.848 966.477,745.769L971.985,720.231C972.107,719.669 972.546,719.23 973.108,719.108C973.547,719.01 974.011,719.157 974.353,719.425L975.989,720.719C976.794,721.354 977.185,722.404 976.965,723.429L976.648,724.992C976.55,725.48 977.087,725.822 977.478,725.553C981.506,722.648 985.29,721.476 988.366,722.233C991.589,723.039 994.983,726.041 992.834,735.831C991.882,740.104 990.124,747.648 989.905,748.502C989.563,750.065 988.977,751.505 988.196,752.824C987.927,753.239 988.196,753.8 988.684,753.898C994.569,754.851 997.638,750.613 998.787,748.473C998.846,747.199 999.049,745.812 999.396,744.303L999.567,743.546L999.591,743.546L1011.749,692.204C1011.847,691.862 1012.067,691.544 1012.408,691.325C1012.823,691.056 1013.434,690.983 1013.971,691.129C1015.07,691.422 1017.34,694.181 1016.705,696.745L1004.767,747.135C1004.767,747.184 1004.742,747.208 1004.742,747.257C1004.327,749.259 1004.425,750.626 1005.06,751.579C1005.573,752.335 1006.476,752.848 1007.794,753.092C1009.76,753.472 1015.323,753.382 1017.433,748.875C1017.437,748.461 1017.469,748.043 1017.53,747.623C1018.115,743.571 1019.898,736.1 1020.923,731.998C1021.729,728.8 1022.998,724.894 1025.855,723.063C1026.465,722.672 1027.124,722.331 1027.808,722.062C1028.443,721.818 1029.126,722.013 1029.566,722.526C1030.005,723.039 1030.078,723.747 1029.737,724.332C1028.198,726.945 1026.856,731.144 1026.294,733.317C1025.318,737.321 1023.56,744.596 1022.998,748.429C1022.656,750.871 1024.732,752.848 1026.953,753.385C1028.931,753.849 1030.762,753.239 1032.276,751.627C1032.691,751.139 1032.715,750.407 1032.276,749.943C1030.811,748.405 1029.59,746.525 1028.589,744.303C1026.465,739.616 1026.514,730.875 1030.005,725.822C1031.885,723.112 1034.107,721.818 1036.841,721.818C1039.6,721.818 1040.479,723.014 1041.577,724.528C1044.531,728.605 1042.993,735.685 1042.627,737.125C1042.481,737.956 1041.382,743.742 1040.406,747.379C1040.21,748.087 1040.625,748.795 1041.333,748.991C1042.09,749.21 1042.871,749.357 1043.531,749.406C1047.51,749.625 1048.853,747.648 1048.902,747.55C1048.976,747.357 1049.132,747.218 1049.314,747.155L1052.338,735.88C1052.436,735.612 1052.363,735.294 1052.192,735.05C1051.117,733.561 1050.776,731.486 1051.239,729.118C1051.85,725.944 1054.072,721.403 1057.709,721.94C1058.686,722.086 1059.516,722.648 1060.029,723.502C1060.81,724.796 1060.761,726.749 1059.858,729.313C1059.662,730.094 1060.492,730.729 1061.2,730.363C1062.006,729.899 1062.812,729.435 1063.471,729.02C1064.521,728.385 1065.326,727.946 1066.034,727.58C1066.791,727.213 1067.792,727.457 1068.793,728.288C1070.063,729.289 1071.137,731.071 1070.771,732.487C1070.087,735.099 1067.475,747.208 1066.694,750.871L1066.645,751.139C1066.547,751.53 1066.498,752.384 1066.889,752.848C1067.28,753.361 1068.329,753.654 1069.77,753.654L1069.794,753.654C1073.498,753.654 1075.262,749.871 1075.805,748.384C1075.887,745.719 1076.668,742.92 1077.357,740.324C1079.627,731.583 1083.216,720.719 1092.176,721.671C1099.134,722.404 1102.113,726.701 1100.062,733.683C1099.158,736.71 1096.473,745.939 1087.049,743.937C1086.268,743.79 1085.511,743.644 1084.827,743.449C1083.582,743.082 1082.337,743.864 1082.044,745.109C1081.385,747.868 1081.385,749.723 1082.02,750.846C1083.631,753.751 1090.906,753.873 1094.3,753.263C1098.597,752.457 1101.356,750.309 1102.503,746.867C1102.556,746.712 1102.632,746.595 1102.723,746.508L1105.573,735.88C1105.671,735.612 1105.598,735.294 1105.427,735.05C1104.353,733.561 1104.011,731.486 1104.475,729.118C1105.085,725.944 1107.307,721.403 1110.945,721.94C1111.921,722.086 1112.751,722.648 1113.264,723.502C1114.045,724.796 1113.996,726.749 1113.093,729.313C1112.898,730.094 1113.728,730.729 1114.436,730.363C1115.241,729.899 1116.047,729.435 1116.706,729.02C1117.756,728.385 1118.562,727.946 1119.27,727.58C1120.027,727.213 1121.028,727.457 1122.029,728.288C1123.298,729.289 1124.372,731.071 1124.006,732.487C1123.323,735.099 1120.71,747.208 1119.929,750.871L1119.88,751.139C1119.782,751.53 1119.734,752.384 1120.124,752.848C1120.515,753.361 1121.565,753.654 1123.005,753.654L1123.03,753.654C1127.619,753.654 1129.231,747.843 1129.231,747.794C1129.328,747.453 1129.67,747.233 1130.012,747.306L1134.162,748.258C1134.333,748.307 1134.48,748.405 1134.577,748.551C1134.577,748.576 1134.602,748.6 1134.602,748.624C1134.626,748.576 1134.382,749.772 1134.187,750.431C1132.82,754.044 1129.255,759.171 1122.932,759.171L1122.883,759.171C1119.587,759.147 1117.146,758.17 1115.656,756.217C1113.655,753.629 1114.314,750.504 1114.46,749.894L1114.46,749.87C1114.9,747.794 1116.462,740.592 1117.634,735.368C1117.683,735.221 1117.585,735.123 1117.536,735.099C1117.488,735.05 1117.365,735.001 1117.219,735.075C1115.901,735.807 1114.07,736.735 1112.116,737.125C1111.384,737.272 1110.798,737.858 1110.603,738.59L1107.24,747.943C1107.354,748.13 1107.342,748.357 1107.239,748.722C1104.823,757.487 1098.28,759.196 1091.151,759.196C1089.417,759.196 1086.121,759.123 1084.412,758.707C1081.611,758.012 1079.505,756.868 1078.06,755.252C1076.138,757.425 1073.387,759.171 1069.697,759.171L1069.648,759.171C1066.352,759.147 1063.91,758.17 1062.421,756.217C1060.419,753.629 1061.078,750.504 1061.225,749.894L1061.225,749.87C1061.664,747.794 1063.227,740.592 1064.399,735.368C1064.448,735.221 1064.35,735.123 1064.301,735.099C1064.252,735.05 1064.13,735.001 1063.984,735.075C1062.665,735.807 1060.834,736.735 1058.881,737.125C1058.149,737.272 1057.563,737.858 1057.367,738.59L1053.931,748.147C1054.193,748.288 1054.359,748.578 1054.297,748.869C1053.614,751.798 1049.146,754.972 1043.823,754.874C1042.285,754.826 1040.381,754.484 1038.697,753.971C1038.111,753.8 1037.476,753.996 1037.11,754.459C1034.033,758.439 1030.249,759.074 1028.125,759.074C1027.295,759.074 1026.465,758.976 1025.659,758.781C1022.842,758.115 1020.541,756.474 1019.096,754.332C1016.49,757.103 1012.678,759.378 1008.429,759.147C1007.989,759.123 1007.574,759.123 1007.159,759.049C1003.986,758.512 1001.91,757.34 1000.446,755.241C1000.343,755.093 1000.244,754.943 1000.151,754.789C997.941,757.168 994.495,759.269 989.221,759.269L988.952,759.269C988.586,759.245 988.196,759.245 987.781,759.22C985.803,759.123 984.167,758.83 982.776,758.366C982.409,758.219 981.97,758.219 981.604,758.366C979.992,758.976 978.381,759.196 976.989,758.976C974.182,758.537 973.059,756.437 973.205,754.655C973.425,752.091 975.647,750.382 978.698,750.382C979.602,750.382 980.359,750.553 980.969,750.822C981.848,751.212 982.873,750.871 983.386,750.065C983.899,749.235 984.289,748.307 984.509,747.257L984.509,747.233C984.729,746.403 986.487,738.859 987.414,734.635C988.293,730.705 988.122,727.897 987.048,727.628C984.875,727.091 980.09,729.606 975.158,735.246C974.548,735.929 974.109,736.759 973.938,737.638L961.072,797.135C960.998,797.453 960.852,797.77 960.608,797.99C960.315,798.283 959.924,798.429 959.509,798.429C959.411,798.429 959.289,798.429 959.167,798.405L958.85,798.331C956.897,797.916 955.652,795.963 956.067,794.035L963.645,758.898C961.669,759.718 959.85,759.733 958.636,759.733L958.294,759.733C953.216,759.733 949.383,756.144 947.113,752.165C946.746,751.554 945.916,751.481 945.477,752.042C940.643,758.097 938.079,759 936.199,759L936.151,759C935.203,759 934.368,758.866 933.65,758.6ZM1037.232,735.88C1037.842,733.488 1038.184,729.313 1037.085,727.799C1036.939,727.58 1036.719,727.335 1036.035,727.287L1035.962,727.287C1034.961,727.287 1034.156,727.921 1033.765,729.02C1032.471,732.584 1032.08,738.59 1033.618,742.033C1033.985,742.79 1033.692,742.277 1034.107,742.936C1034.107,742.936 1034.424,743.571 1034.79,744.059C1035.01,744.376 1035.474,744.352 1035.62,743.742C1036.499,740.25 1037.183,736.076 1037.207,736.027L1037.232,735.88ZM1085.682,734.245C1085.242,735.392 1085.804,736.735 1087.025,737.125C1091.541,738.615 1093.079,737.272 1094.276,733.61C1094.324,733.439 1094.398,733.268 1094.447,733.097C1094.984,731.559 1094.935,730.045 1094.349,729.02C1093.641,727.824 1092.445,727.75 1092.274,727.677C1088.612,727.067 1087.415,729.801 1085.682,734.245Z" style="fill:rgb(169,91,54);"/>
        </g>
    </g>
</svg>
